<svg xmlns="http://www.w3.org/2000/svg" style="display:none" aria-hidden="true">
  <!-- Phosphor-style icon sprite, 24x24 viewBox, stroke-based to match .icon class -->

  <symbol id="i-calendar" viewBox="0 0 24 24" fill="none" stroke="currentColor" stroke-width="2" stroke-linecap="round" stroke-linejoin="round">
    <rect x="3" y="5" width="18" height="16" rx="2"/>
    <line x1="3" y1="10" x2="21" y2="10"/>
    <line x1="8" y1="3" x2="8" y2="7"/>
    <line x1="16" y1="3" x2="16" y2="7"/>
  </symbol>

  <symbol id="i-trophy" viewBox="0 0 24 24" fill="none" stroke="currentColor" stroke-width="2" stroke-linecap="round" stroke-linejoin="round">
    <path d="M7 4h10v6a5 5 0 0 1-10 0V4z"/>
    <path d="M7 6H4v1a3 3 0 0 0 3 3"/>
    <path d="M17 6h3v1a3 3 0 0 1-3 3"/>
    <line x1="12" y1="15" x2="12" y2="19"/>
    <line x1="8" y1="20" x2="16" y2="20"/>
  </symbol>

  <symbol id="i-pin" viewBox="0 0 24 24" fill="none" stroke="currentColor" stroke-width="2" stroke-linecap="round" stroke-linejoin="round">
    <path d="M12 21s7-7 7-12a7 7 0 0 0-14 0c0 5 7 12 7 12z"/>
    <circle cx="12" cy="9" r="2.5"/>
  </symbol>

  <symbol id="i-clock" viewBox="0 0 24 24" fill="none" stroke="currentColor" stroke-width="2" stroke-linecap="round" stroke-linejoin="round">
    <circle cx="12" cy="12" r="9"/>
    <polyline points="12 7 12 12 16 14"/>
  </symbol>

  <symbol id="i-fish" viewBox="0 0 24 24" fill="none" stroke="currentColor" stroke-width="2" stroke-linecap="round" stroke-linejoin="round">
    <path d="M3 12c2-3 5.5-5 9-5 4 0 7 2 8 5-1 3-4 5-8 5-3.5 0-7-2-9-5z"/>
    <path d="M14 8.5l5-3.5v14l-5-3.5"/>
    <circle cx="7.5" cy="11" r="0.7" fill="currentColor" stroke="none"/>
  </symbol>

  <symbol id="i-dollar" viewBox="0 0 24 24" fill="none" stroke="currentColor" stroke-width="2" stroke-linecap="round" stroke-linejoin="round">
    <line x1="12" y1="2" x2="12" y2="22"/>
    <path d="M17 6H10a3 3 0 0 0 0 6h4a3 3 0 0 1 0 6H7"/>
  </symbol>

  <symbol id="i-scale" viewBox="0 0 24 24" fill="none" stroke="currentColor" stroke-width="2" stroke-linecap="round" stroke-linejoin="round">
    <line x1="12" y1="4" x2="12" y2="21"/>
    <line x1="7" y1="21" x2="17" y2="21"/>
    <line x1="4" y1="7" x2="20" y2="7"/>
    <line x1="6" y1="7" x2="12" y2="4"/>
    <line x1="18" y1="7" x2="12" y2="4"/>
    <path d="M2 14a4 4 0 0 0 8 0L6 7z"/>
    <path d="M14 14a4 4 0 0 0 8 0L18 7z"/>
  </symbol>

  <symbol id="i-check" viewBox="0 0 24 24" fill="none" stroke="currentColor" stroke-width="2.4" stroke-linecap="round" stroke-linejoin="round">
    <polyline points="4 12 10 18 20 6"/>
  </symbol>

  <symbol id="i-arrow-right" viewBox="0 0 24 24" fill="none" stroke="currentColor" stroke-width="2" stroke-linecap="round" stroke-linejoin="round">
    <line x1="4" y1="12" x2="19" y2="12"/>
    <polyline points="13 6 19 12 13 18"/>
  </symbol>

  <symbol id="i-waves" viewBox="0 0 24 24" fill="none" stroke="currentColor" stroke-width="2" stroke-linecap="round" stroke-linejoin="round">
    <path d="M2 7c2-2 4-2 6 0s4 2 6 0 4-2 6 0 4 2 6 0"/>
    <path d="M2 13c2-2 4-2 6 0s4 2 6 0 4-2 6 0 4 2 6 0"/>
    <path d="M2 19c2-2 4-2 6 0s4 2 6 0 4-2 6 0 4 2 6 0"/>
  </symbol>

  <symbol id="i-mail" viewBox="0 0 24 24" fill="none" stroke="currentColor" stroke-width="2" stroke-linecap="round" stroke-linejoin="round">
    <rect x="3" y="5" width="18" height="14" rx="2"/>
    <polyline points="3 7 12 13 21 7"/>
  </symbol>

  <symbol id="i-users" viewBox="0 0 24 24" fill="none" stroke="currentColor" stroke-width="2" stroke-linecap="round" stroke-linejoin="round">
    <circle cx="9" cy="8" r="3.5"/>
    <path d="M3 20c0-3.3 2.7-6 6-6s6 2.7 6 6"/>
    <path d="M16 4a3 3 0 0 1 0 6"/>
    <path d="M17 14a4 4 0 0 1 4 4v2"/>
  </symbol>

  <symbol id="i-info" viewBox="0 0 24 24" fill="none" stroke="currentColor" stroke-width="2" stroke-linecap="round" stroke-linejoin="round">
    <circle cx="12" cy="12" r="9"/>
    <line x1="12" y1="11" x2="12" y2="17"/>
    <circle cx="12" cy="7.5" r="0.7" fill="currentColor" stroke="none"/>
  </symbol>

  <symbol id="i-anchor" viewBox="0 0 24 24" fill="none" stroke="currentColor" stroke-width="2" stroke-linecap="round" stroke-linejoin="round">
    <circle cx="12" cy="5" r="2"/>
    <line x1="12" y1="7" x2="12" y2="22"/>
    <line x1="8" y1="11" x2="16" y2="11"/>
    <path d="M5 13a7 7 0 0 0 14 0"/>
  </symbol>

  <symbol id="i-flag" viewBox="0 0 24 24" fill="none" stroke="currentColor" stroke-width="2" stroke-linecap="round" stroke-linejoin="round">
    <line x1="5" y1="3" x2="5" y2="21"/>
    <path d="M5 4h14l-3 4 3 4H5"/>
  </symbol>

  <symbol id="i-menu" viewBox="0 0 24 24" fill="none" stroke="currentColor" stroke-width="2" stroke-linecap="round" stroke-linejoin="round">
    <line x1="4" y1="7" x2="20" y2="7"/>
    <line x1="4" y1="12" x2="20" y2="12"/>
    <line x1="4" y1="17" x2="20" y2="17"/>
  </symbol>

  <symbol id="i-phone" viewBox="0 0 24 24" fill="none" stroke="currentColor" stroke-width="2" stroke-linecap="round" stroke-linejoin="round">
    <path d="M5 4h4l2 5-2.5 1.5a11 11 0 0 0 5 5L15 13l5 2v4a2 2 0 0 1-2 2A15 15 0 0 1 3 6a2 2 0 0 1 2-2z"/>
  </symbol>

</svg>
